# xmcd CD database file
#
# Track frame offsets:
#	150
#	16067
#	37970
#	51042
#	81197
#	94710
#	120685
#	137777
#	152067
#	182555
#	195770
#	211927
#	226115
#
# Disc length: 3239 seconds
#
# Revision: 0
# Processed by: cddbd v1.5.1PL0 Copyright (c) Steve Scherf et al.
# Submitted via: CDex 1.51
#
DISCID=950ca50d
DTITLE=Blues Breakers - C'mon
DYEAR=1993
DGENRE=Blues
TTITLE0=Diddy Bop
TTITLE1=Bad Girl
TTITLE2=C'mon ev'rybody
TTITLE3=Something on your mind
TTITLE4=Speedo
TTITLE5=Lonely evening
TTITLE6=High Voltage
TTITLE7=Yellow Moon
TTITLE8=Bigfat Mama
TTITLE9=Transsilvania Blues
TTITLE10=I can't live without you
TTITLE11=Take away my Pain
TTITLE12=Hot Stuff
EXTD=YEAR: 1993
EXTT0=
EXTT1=
EXTT2=
EXTT3=
EXTT4=
EXTT5=
EXTT6=
EXTT7=
EXTT8=
EXTT9=
EXTT10=
EXTT11=
EXTT12=
PLAYORDER=
